<svg width="334" height="118" viewBox="0 0 334 118" fill="none" xmlns="http://www.w3.org/2000/svg">
<path d="M321.018 19.1963C320.544 17.2518 316.215 16.6037 311.354 17.8157C307.128 18.8528 303.9 20.9139 303.44 22.7157C292.759 16.9676 280.648 14.4181 268.556 15.3722C270.203 13.9835 271.584 12.308 272.633 10.4268C275.148 6.0972 275.796 1.77405 274.04 0.769418C272.283 -0.235211 268.855 2.44812 266.346 6.77127C264.188 10.4852 263.43 14.1861 264.35 15.8C254.524 17.066 244.236 20.3521 233.485 25.6583C234.348 23.948 234.947 22.1167 235.261 20.2268C236.136 15.3009 235.261 11.0231 233.258 10.6666C231.256 10.3102 228.974 14.0305 228.073 18.9565C227.36 22.9815 227.84 26.5333 229.11 27.9074C225.74 29.7222 222.328 31.7271 218.876 33.9222C213.782 37.1469 208.491 40.0498 203.035 42.6139C204.088 40.7513 204.803 38.7172 205.148 36.6055C206.017 31.6796 205.148 27.4018 203.145 27.0518C201.143 26.7018 198.861 30.4092 197.96 35.3416C197.228 39.4768 197.753 43.1194 199.107 44.4157C188.613 48.9952 177.778 52.7507 166.7 55.6481C155.611 52.7504 144.765 48.9927 134.26 44.4092C135.615 43.1129 136.14 39.4768 135.407 35.3352C134.532 30.4028 132.218 26.6953 130.222 27.0453C128.226 27.3953 127.37 31.6666 128.245 36.6055C128.582 38.7173 129.293 40.752 130.345 42.6139C124.887 40.0499 119.594 37.147 114.498 33.9222C111.041 31.7185 107.63 29.7136 104.264 27.9074C105.56 26.5333 106.014 22.9815 105.301 18.9565C104.426 14.0305 102.118 10.3166 100.116 10.6666C98.1129 11.0166 97.2444 15.3009 98.1194 20.2268C98.4315 22.1163 99.0281 23.9476 99.8889 25.6583C88.9741 20.2614 78.5216 16.9537 68.5315 15.7352C69.4 14.0889 68.6416 10.4463 66.5092 6.77127C64.0203 2.44812 60.6111 -0.241693 58.8416 0.769418C57.0722 1.78053 57.7333 6.0972 60.2481 10.4268C61.2913 12.2934 62.6587 13.9592 64.2861 15.3463C52.3792 14.5022 40.4774 17.0579 29.9666 22.7157C29.5065 20.9139 26.2722 18.8268 22.0463 17.8157C17.1852 16.6296 12.862 17.2453 12.3824 19.1963C11.9027 21.1472 15.4546 23.6879 20.3157 24.8805C22.5285 25.4765 24.8388 25.6198 27.1083 25.3018C27.1298 25.4356 27.1736 25.5649 27.2379 25.6842C27.3393 25.8472 27.4768 25.9847 27.6398 26.0861C26.3125 27.9047 25.3485 29.9624 24.8009 32.1463C23.5046 36.9685 23.9907 41.3111 25.9287 41.8685C27.8666 42.4259 30.4657 38.9065 31.8139 34.0907C32.9546 29.9037 32.7277 26.0926 31.3796 24.8092C41.3131 19.5186 52.523 17.0971 63.7546 17.8157C62.1378 18.6209 60.643 19.6509 59.3148 20.875C55.6203 24.2518 53.7213 28.1861 55.0759 29.6703C56.4305 31.1546 60.5203 29.6185 64.2213 26.2481C67.3648 23.3833 69.1861 20.1166 68.8361 18.2889C78.3423 19.529 88.3129 22.7179 98.7481 27.8555C96.7372 28.2133 94.8005 28.9056 93.0185 29.9037C88.6176 32.2889 85.8305 35.6528 86.7898 37.4157C87.749 39.1787 92.0852 38.712 96.512 36.2944C100.07 34.35 102.54 31.7963 102.857 29.9555C106.254 31.7703 109.695 33.7904 113.182 36.0157C118.069 39.1087 123.136 41.9072 128.356 44.3963C126.525 44.6458 124.741 45.1611 123.06 45.9259C118.484 47.9416 115.425 51.0657 116.235 52.9064C117.045 54.7472 121.42 54.5981 125.99 52.5824C129.879 50.8777 132.633 48.3759 132.899 46.5352C142.298 50.6689 151.978 54.1343 161.865 56.9055C153.373 59.034 144.767 60.6786 136.088 61.8315C135.771 61.8639 135.479 62.017 135.273 62.259C135.066 62.501 134.96 62.8133 134.978 63.1311C134.995 63.4489 135.135 63.7477 135.367 63.9655C135.599 64.1834 135.906 64.3035 136.224 64.3009H136.367C146.597 62.9325 156.729 60.9083 166.7 58.2407C176.673 60.9115 186.807 62.9379 197.04 64.3074H197.176C197.494 64.3099 197.801 64.1898 198.033 63.972C198.265 63.7542 198.404 63.4554 198.422 63.1376C198.439 62.8198 198.334 62.5075 198.127 62.2655C197.921 62.0235 197.629 61.8704 197.312 61.8379C188.634 60.6838 180.028 59.0392 171.535 56.912C181.422 54.1407 191.102 50.6753 200.501 46.5416C200.767 48.3824 203.528 50.8842 207.41 52.5889C211.993 54.6046 216.361 54.7472 217.171 52.9129C217.981 51.0787 214.922 47.9157 210.333 45.9259C208.659 45.1719 206.884 44.6654 205.064 44.4222C210.281 41.9318 215.346 39.1333 220.231 36.0416C223.718 33.812 227.161 31.7898 230.562 29.975C230.873 31.8222 233.343 34.3889 236.907 36.3203C241.302 38.7055 245.644 39.2111 246.63 37.4416C247.615 35.6722 244.795 32.3148 240.401 29.9296C238.612 28.9266 236.666 28.234 234.645 27.8815C245.068 22.7438 255.04 19.5549 264.564 18.3148C264.207 20.1426 266.029 23.4092 269.179 26.274C272.873 29.6444 276.956 31.1805 278.318 29.6963C279.679 28.212 277.773 24.2778 274.079 20.9009C272.757 19.6791 271.271 18.6473 269.665 17.8352C280.893 17.1094 292.102 19.5195 302.04 24.7963C300.698 26.0926 300.465 29.8907 301.606 34.0778C302.902 38.9065 305.559 42.3935 307.497 41.8555C309.435 41.3176 309.934 36.9815 308.619 32.1333C308.074 29.9483 307.11 27.89 305.78 26.0731C305.945 25.9754 306.084 25.8372 306.181 25.6713C306.246 25.5519 306.29 25.4227 306.311 25.2889C308.583 25.607 310.895 25.4637 313.11 24.8676C317.926 23.6879 321.497 21.1407 321.018 19.1963Z" fill="white"/>
<path d="M333.067 104.402C333.065 105.34 332.786 106.257 332.264 107.036C331.742 107.815 331 108.422 330.133 108.78C329.266 109.139 328.313 109.232 327.393 109.048C326.473 108.864 325.628 108.412 324.965 107.748C324.302 107.084 323.851 106.239 323.668 105.319C323.486 104.398 323.58 103.445 323.94 102.578C324.299 101.712 324.907 100.971 325.687 100.45C326.467 99.929 327.384 99.6509 328.322 99.6509C328.946 99.6509 329.563 99.7738 330.139 100.013C330.715 100.251 331.239 100.602 331.679 101.043C332.12 101.484 332.469 102.008 332.707 102.584C332.945 103.161 333.067 103.778 333.067 104.402V104.402Z" fill="white"/>
<path d="M9.8287 104.402C9.8287 105.342 9.5499 106.261 9.02757 107.042C8.50525 107.823 7.76287 108.432 6.89437 108.792C6.02588 109.151 5.07029 109.245 4.14853 109.061C3.22676 108.877 2.38024 108.424 1.71607 107.759C1.0519 107.094 0.599927 106.247 0.417344 105.325C0.234761 104.403 0.329771 103.447 0.690351 102.579C1.05093 101.711 1.66088 100.97 2.44302 100.448C3.22516 99.9272 4.14434 99.6496 5.08425 99.6509C5.70785 99.6509 6.32533 99.7738 6.90137 100.013C7.47742 100.251 8.00073 100.602 8.44138 101.043C8.88203 101.484 9.23136 102.008 9.46941 102.584C9.70746 103.161 9.82955 103.778 9.8287 104.402Z" fill="white"/>
<path d="M69.2546 117.06H55.6991V115.931L60.3842 114.236V82.4399H46.1528V85.2084C46.1528 91.4923 45.9059 96.8936 45.412 101.412C44.9244 105.931 44.0972 109.548 42.9305 112.264C42.0663 114.258 41.0602 115.65 39.912 116.44C38.7639 117.23 37.6435 117.625 36.5509 117.625C35.7238 117.625 35.2052 117.502 34.9954 117.255C34.7855 117.014 34.6805 116.591 34.6805 115.986V113.394L34.9676 113.162H35.4213C37.4892 113.162 39.0879 112.032 40.2176 109.773C41.3472 107.514 42.1281 104.304 42.5602 100.144C42.9984 95.9831 43.2176 91.0232 43.2176 85.264V82.6065L38.7546 80.9121V79.7825H69.2546V80.9121L64.7361 82.6065V114.236L69.2546 115.931V117.06ZM79.4213 114.745V93.9584L75.8565 92.551V91.6436H86.9861V92.551L83.2546 93.9584V109.829L96.3657 95.9399V93.9584L92.6342 92.551V91.6436H103.764V92.551L100.199 93.9584V114.745L103.764 116.153V117.06H92.6342V116.153L96.3657 114.745V98.764L83.2546 112.708V114.745L86.9861 116.153V117.06H75.8565V116.153L79.4213 114.745ZM113.19 114.745V93.9584L109.634 92.551V91.6436H130.366V100.847H129.458L126.181 93.7917H117.032V114.745L121.44 116.153V117.06H109.634V116.153L113.19 114.745ZM140.644 117.625C138.872 117.625 137.403 117.107 136.236 116.07C135.069 115.032 134.486 113.594 134.486 111.755C134.486 109.946 135.165 108.39 136.523 107.088C137.875 105.792 140.116 104.767 143.245 104.014L148.718 102.662V98.3102C148.718 96.8781 148.162 95.693 147.051 94.7547C145.94 93.8102 144.708 93.338 143.356 93.338C141.813 93.338 140.748 93.6961 140.162 94.4121C139.582 95.1281 139.292 96.1065 139.292 97.3473V99.2084L139.005 99.4954H136.634C136.066 99.4954 135.681 99.3998 135.477 99.2084C135.267 99.0232 135.162 98.6281 135.162 98.0232C135.162 97.2331 135.409 96.4337 135.903 95.6251C136.39 94.8164 137.125 94.0911 138.106 93.4491C139.156 92.7701 140.236 92.2053 141.347 91.7547C142.458 91.3041 143.579 91.0788 144.708 91.0788C146.14 91.0788 147.44 91.2763 148.606 91.6714C149.773 92.0664 150.714 92.7177 151.431 93.6251C152.147 94.5263 152.505 95.73 152.505 97.2362V113.894C152.807 114.159 153.184 114.378 153.634 114.551C154.085 114.718 154.668 114.801 155.384 114.801H157.875L157.986 114.912V115.023C157.61 115.702 157.035 116.307 156.264 116.838C155.492 117.363 154.523 117.625 153.356 117.625C152.11 117.625 151.128 117.304 150.412 116.662C149.696 116.026 149.208 115.218 148.949 114.236H148.718C147.742 115.181 146.548 115.98 145.134 116.634C143.721 117.295 142.224 117.625 140.644 117.625ZM138.273 110.681C138.273 111.995 138.668 112.983 139.458 113.644C140.248 114.304 141.36 114.634 142.792 114.634C143.73 114.634 144.681 114.52 145.644 114.292C146.6 114.07 147.625 113.693 148.718 113.162V104.292C145.668 104.897 143.4 105.511 141.912 106.134C140.424 106.752 139.446 107.428 138.977 108.162C138.508 108.897 138.273 109.736 138.273 110.681ZM191.079 117.06H176.393V115.931L180.856 114.236V82.6065L176.393 80.9121V79.7825H203.282V90.2917H202.264L199.042 82.4399H185.264V95.4306H191.079C195.826 95.4306 199.545 96.3627 202.236 98.2269C204.927 100.091 206.273 102.566 206.273 105.653C206.273 107.838 205.662 109.786 204.44 111.495C203.218 113.211 201.477 114.566 199.218 115.56C196.958 116.56 194.245 117.06 191.079 117.06ZM190.745 98.0788H185.264V114.403H191.079C194.622 114.403 197.248 113.64 198.958 112.116C200.674 110.591 201.532 108.644 201.532 106.273C201.532 103.409 200.665 101.329 198.931 100.032C197.202 98.73 194.474 98.0788 190.745 98.0788ZM217.968 117.625C216.196 117.625 214.727 117.107 213.56 116.07C212.393 115.032 211.81 113.594 211.81 111.755C211.81 109.946 212.489 108.39 213.847 107.088C215.199 105.792 217.437 104.767 220.56 104.014L226.042 102.662V98.3102C226.042 96.8781 225.486 95.693 224.375 94.7547C223.264 93.8102 222.032 93.338 220.681 93.338C219.137 93.338 218.073 93.6961 217.486 94.4121C216.9 95.1281 216.606 96.1065 216.606 97.3473V99.2084L216.329 99.4954H213.958C213.39 99.4954 213.005 99.3998 212.801 99.2084C212.591 99.0232 212.486 98.6281 212.486 98.0232C212.486 97.2331 212.73 96.4337 213.218 95.6251C213.711 94.8164 214.446 94.0911 215.421 93.4491C216.477 92.7701 217.56 92.2053 218.671 91.7547C219.782 91.3041 220.903 91.0788 222.032 91.0788C223.464 91.0788 224.764 91.2763 225.931 91.6714C227.097 92.0664 228.039 92.7177 228.755 93.6251C229.471 94.5263 229.829 95.73 229.829 97.2362V113.894C230.131 114.159 230.508 114.378 230.958 114.551C231.409 114.718 231.992 114.801 232.708 114.801H235.19L235.31 114.912V115.023C234.934 115.702 234.36 116.307 233.588 116.838C232.81 117.363 231.838 117.625 230.671 117.625C229.431 117.625 228.452 117.304 227.736 116.662C227.02 116.026 226.532 115.218 226.273 114.236H226.042C225.066 115.181 223.872 115.98 222.458 116.634C221.045 117.295 219.548 117.625 217.968 117.625ZM215.597 110.681C215.597 111.995 215.992 112.983 216.782 113.644C217.573 114.304 218.684 114.634 220.116 114.634C221.054 114.634 222.005 114.52 222.968 114.292C223.924 114.07 224.949 113.693 226.042 113.162V104.292C222.992 104.897 220.724 105.511 219.236 106.134C217.748 106.752 216.77 107.428 216.301 108.162C215.832 108.897 215.597 109.736 215.597 110.681ZM242.421 114.745V93.9584L238.866 92.551V91.6436H249.995V92.551L246.264 93.9584V103.051H258.801V93.9584L255.079 92.551V91.6436H266.199V92.551L262.643 93.9584V114.745L266.199 116.153V117.06H255.079V116.153L258.801 114.745V105.199H246.264V114.745L249.995 116.153V117.06H238.866V116.153L242.421 114.745ZM298.393 117.06H291.505L289.643 114.514L279.477 104.181V114.745L283.199 116.153V117.06H272.079V116.153L275.634 114.745V93.9584L272.079 92.551V91.6436H283.199V92.551L279.477 93.9584V103.56L290.375 94.5232V94.1899L288.282 92.551V91.6436H297.829V92.551L294.051 94.1251L283.143 102.773L294.782 114.634L298.393 116.153V117.06Z" fill="white"/>
</svg>
